PathFileType	4	(X/Y/Z)	./resultDataOpenSim/trcMotMarkerGrf/sub10/qtm-02-03.trc
DataRate	CameraRate	NumFrames	NumMarkers	Units	OrigDataRate	OrigDataStartFrame	OrigNumFrames
250.000000	250.000000	5	24	m	250.000000	239	477
Frame#	Time	L.Toe.Tip			R.Toe.Tip			L.Ankle.Lat			R.Ankle.Lat			L.Ankle.Med			R.Ankle.Med			L.Heel			R.Heel			L.Knee.Lat			R.Knee.Lat			L.Knee.Med			R.Knee.Med			L.Thigh.Upper			R.Thigh.Upper			L.ASIS			R.ASIS			V.Sacral			L.Acromium			R.Acromium			C7			L.Elbow			R.Elbow			L.Wrist.Lat			R.Wrist.Lat
		X1	Y1	Z1	X2	Y2	Z2	X3	Y3	Z3	X4	Y4	Z4	X5	Y5	Z5	X6	Y6	Z6	X7	Y7	Z7	X8	Y8	Z8	X9	Y9	Z9	X10	Y10	Z10	X11	Y11	Z11	X12	Y12	Z12	X13	Y13	Z13	X14	Y14	Z14	X15	Y15	Z15	X16	Y16	Z16	X17	Y17	Z17	X18	Y18	Z18	X19	Y19	Z19	X20	Y20	Z20	X21	Y21	Z21	X22	Y22	Z22	X23	Y23	Z23	X24	Y24	Z24

239	0.952	0.089053677	0.016751399	-0.075442304	0.15639371	0.067750758	0.06078547	-0.043686302	0.0460854	-0.10880002	0.030165772	0.13632153	0.058145697	-0.036478189	0.071801555	-0.025981214	0.080648998	0.14564152	-0.01600317	-0.1118632	0.022267092	-0.066933167	-0.013266375	0.12434345	-0.00013824799	0.049032424	0.42358204	-0.15432409	0.21928203	0.47128994	0.10197757	0.039252461	0.40723607	-0.031459659	0.2716804	0.48394541	-0.019448005	0.091522497	0.81894155	-0.22657436	0.037167136	0.83127525	0.14558979	0.13353065	0.93161396	-0.15402425	0.10820753	0.93040399	0.086045379	-0.076556599	0.93945213	-0.063590739	0.068556272	1.4060749	-0.17993241	0.020470507	1.3938817	0.14134227	-0.038549106	1.4260231	-0.038167087	0.035429689	1.0609927	-0.25234753	-0.10102065	1.0741316	0.15625062	0.23847069	0.91586191	-0.27290627	-0.055637612	0.84286913	0.22181863
240	0.956	0.08915688	0.016764007	-0.075493134	0.17785707	0.06736858	0.061162135	-0.043702035	0.046369788	-0.10864766	0.049278784	0.1315542	0.05806247	-0.036586167	0.072415331	-0.025757379	0.099610513	0.1423661	-0.016096557	-0.11199596	0.022928907	-0.066755312	0.0071780044	0.11794979	-0.0006084773	0.049602522	0.42394296	-0.15483688	0.22843091	0.47318682	0.1016483	0.039845696	0.40753601	-0.031857492	0.27975425	0.48686312	-0.019687509	0.095879049	0.8187588	-0.22664876	0.043855578	0.83255511	0.14617905	0.13881085	0.93153387	-0.15419589	0.11451978	0.93105764	0.085808232	-0.07049589	0.94104758	-0.061572685	0.074526526	1.4065178	-0.18000829	0.026479545	1.3943284	0.14126292	-0.032411844	1.4264873	-0.038249419	0.047068596	1.0603391	-0.25570449	-0.096907743	1.0758064	0.15568302	0.24949117	0.91904823	-0.2717427	-0.054782172	0.84401217	0.22223213
241	0.96	0.089248006	0.016754251	-0.075544072	0.19935804	0.06711944	0.061554551	-0.04374554	0.046696295	-0.10848527	0.068555428	0.12684604	0.057928109	-0.036681541	0.073041821	-0.025581665	0.11875029	0.13913182	-0.016204853	-0.11209059	0.023589205	-0.066599333	0.027974594	0.11161574	-0.0013400585	0.049879912	0.42424824	-0.15514705	0.23743268	0.47498414	0.1013853	0.040272114	0.40785498	-0.032112936	0.28767503	0.48955521	-0.019901635	0.10010642	0.81851481	-0.2267924	0.04996144	0.83363062	0.14647016	0.1439742	0.93141229	-0.15439649	0.12094393	0.9316347	0.085655137	-0.064424499	0.94228247	-0.059477114	0.080491834	1.4068949	-0.18010046	0.032498935	1.3946927	0.14118167	-0.026281427	1.4268714	-0.038335569	0.055266905	1.0602189	-0.25633961	-0.092907893	1.0773516	0.15519869	0.26045088	0.92220807	-0.27055224	-0.053940542	0.84509079	0.22258391
242	0.964	0.089305221	0.016718294	-0.075571722	0.22085773	0.067023259	0.061964118	-0.043832638	0.04707602	-0.10830377	0.08802752	0.12216002	0.057768851	-0.036607228	0.073620486	-0.025538814	0.13808946	0.13596402	-0.016306758	-0.11210456	0.024200129	-0.066473923	0.048859673	0.10541324	-0.0022512433	0.04980103	0.42443747	-0.15517258	0.2462899	0.4766541	0.10119182	0.040594376	0.40816563	-0.032254675	0.29542411	0.49200303	-0.020071547	0.1043402	0.81824702	-0.22687566	0.055881106	0.83458781	0.14666499	0.14899096	0.93121422	-0.15464861	0.12742379	0.93214179	0.085551381	-0.058322835	0.943032	-0.057535843	0.086457532	1.4072042	-0.18020853	0.038552964	1.3949747	0.14109312	-0.020160385	1.4271833	-0.038422778	0.062163646	1.0602685	-0.255888	-0.089107676	1.0787222	0.15486267	0.2713514	0.9253398	-0.26933806	-0.053097394	0.84614529	0.22282197
243	0.968	0.089331979	0.016674126	-0.075573627	0.2423085	0.067099806	0.062396103	-0.043911323	0.04749589	-0.10815134	0.10772724	0.11748333	0.057620756	-0.036368297	0.074124006	-0.025607205	0.15764456	0.13291589	-0.016380281	-0.11205385	0.024765263	-0.066377435	0.069731131	0.099403849	-0.0031761223	0.049595688	0.42455245	-0.15506899	0.25499477	0.47816774	0.10105334	0.040925117	0.40845587	-0.032361834	0.30299298	0.49419114	-0.020184918	0.10861823	0.81797478	-0.22685419	0.061930814	0.83549734	0.14692192	0.15392159	0.93093334	-0.15493348	0.13386572	0.93257545	0.085439547	-0.052488349	0.94353424	-0.055752005	0.092430551	1.407443	-0.18032572	0.04465571	1.3951768	0.14099043	-0.014050296	1.4274296	-0.038511175	0.06993449	1.060241	-0.25567902	-0.085476562	1.0799322	0.15463909	0.28216828	0.92843083	-0.26812556	-0.052179065	0.84722979	0.22296304
